<svg width="24" height="24" xmlns="http://www.w3.org/2000/svg" fill="orange" fill-rule="evenodd" clip-rule="evenodd"><path d="M1.288 7.265c.564-.634 1.365-.452 1.911-.278l.013-4.987h.385c.228.532.797.889 1.335 1.173.885.468 1.202.861 1.118 1.634-.363-.374-.86-.745-1.511-1.134l-.755-.452-.013 4.343c-.004 1.1-.96 1.51-1.561 1.51h-.005c-.521-.001-1.119-.298-1.197-.945-.037-.312.062-.618.28-.864m.914 2.807h.008c1.254 0 2.555-.937 2.561-2.505l.008-2.539c.913.681 1.118.973 1.546 1.724.241-.259 1.914-3.095-.891-4.443-.481-.23-.939-.543-.938-.805l.001-.5-2.282-.004-.013 4.839c-.645.021-1.247.297-1.662.764-.405.455-.596 1.055-.525 1.645.144 1.194 1.209 1.821 2.187 1.824m19.54 11.201c-1.115-.007-1.351-.949-.914-1.46.447-.525 1.146-.397 1.661-.36l-.004-4.534-4.648 1.178-.003 4.611c-.011 1.024-1.019 1.294-1.552 1.294-.492 0-.946-.264-.972-.789-.013-.298.081-.561.273-.762.511-.534 1.345-.409 1.728-.197l.003-5.261 5.683-1.093.003 6.08c-.01.889-.652 1.293-1.258 1.293m2.255-8.582l-7.684 1.477-.003 4.942c-.557.031-1.08.264-1.451.651-.38.399-.574.931-.547 1.5.054 1.13 1.019 1.731 1.944 1.739h.026c1.257 0 2.536-.783 2.552-2.287l.003-3.841 2.65-.67.002 2.227c-.57.072-1.076.331-1.422.736-.358.418-.508.953-.42 1.505.174 1.095 1.173 1.592 2.108 1.6 1.077 0 2.229-.799 2.245-2.285l-.003-7.294zm-12.928-.528c-1.602.802-1.787 2.466-1.787 3.648v6.138h-.769v-5.866c0-1.587-.876-2.574-2.146-2.094l-1.212.499-.846-1.577 7.576-5.055 1.685 3.133-2.501 1.174zm4.75-7.673c1.828 0 3.315 1.484 3.315 3.307s-1.487 3.306-3.315 3.306c-.409 0-.802-.089-1.178-.234l-2.044-3.799c.337-1.502 1.662-2.58 3.222-2.58m4.315 3.307c0-2.374-1.935-4.304-4.315-4.304-2.028 0-3.763 1.394-4.206 3.345l-8.614 5.747.63 1.173c-1.765.999-3.56 2.575-3.62 5.68l1 .019c.042-2.128.987-3.594 3.096-4.811l.596 1.108 2.032-.838.224-.047c.361 0 .556.625.556 1.214v6.864h2.769v-7.136c0-1.498.369-2.322 1.224-2.75l2.703-1.27c.512.206 1.052.31 1.61.31 2.38 0 4.315-1.931 4.315-4.304"/></svg>